<svg xmlns="http://www.w3.org/2000/svg" 
     width="1024" height="1024" 
     viewBox="0 0 1024 1024" 
     shape-rendering="geometricPrecision">

  <path d="M0 0h1024v1024H0z" fill="#000000"/>

  <defs>
    <g id="baseGlowCircles">
      <circle cx="350.4700" cy="853.9300" r="331.4700"/>
      <circle cx="512.0000" cy="715.0000" r="331.4700"/>
      <circle cx="673.5300" cy="853.9300" r="331.4700"/>
    </g>

    <g id="dustLarge10L" fill="#FFFFFF" fill-opacity="0.018">
         <circle r="2.0"/> <circle r="4.0"/> <circle r="6.0"/> <circle r="8.0"/>
         <circle r="10.0"/> <circle r="12.0"/> <circle r="14.0"/> <circle r="16.0"/>
         <circle r="18.0"/> <circle r="20.0"/>
    </g>

    <g id="dustMed10L" fill="#FFFFFF" fill-opacity="0.024">
         <circle r="1.5"/> <circle r="3.0"/> <circle r="4.5"/> <circle r="6.0"/>
         <circle r="7.5"/> <circle r="9.0"/> <circle r="10.5"/> <circle r="12.0"/>
         <circle r="13.5"/> <circle r="15.0"/>
    </g>

    <g id="dustSmall10L" fill="#FFFFFF" fill-opacity="0.03">
        <circle r="1.0"/> <circle r="2.0"/> <circle r="3.0"/> <circle r="4.0"/>
        <circle r="5.0"/> <circle r="6.0"/> <circle r="7.0"/> <circle r="8.0"/>
        <circle r="9.0"/> <circle r="10.0"/>
    </g>
  </defs>

  <g>
    <use href="#dustLarge10L" x="150" y="100"/>
    <use href="#dustLarge10L" x="850" y="150"/>
    <use href="#dustLarge10L" x="500" y="50"/>
    <use href="#dustLarge10L" x="300" y="250"/>
    <use href="#dustLarge10L" x="700" y="300"/>
    <use href="#dustLarge10L" x="100" y="400"/>
    <use href="#dustLarge10L" x="900" y="50"/>
    <use href="#dustLarge10L" x="50" y="60"/>
    <use href="#dustLarge10L" x="980" y="80"/>
    <use href="#dustLarge10L" x="200" y="30"/>
    <use href="#dustLarge10L" x="30" y="300"/>

    <use href="#dustMed10L" x="250" y="180"/>
    <use href="#dustMed10L" x="650" y="120"/>
    <use href="#dustMed10L" x="450" y="300"/>
    <use href="#dustMed10L" x="800" y="220"/>
    <use href="#dustMed10L" x="120" y="320"/>
    <use href="#dustMed10L" x="350" y="80"/>
    <use href="#dustMed10L" x="920" y="350"/>
    <use href="#dustMed10L" x="60" y="150"/>
    <use href="#dustMed10L" x="990" y="200"/>
    <use href="#dustMed10L" x="400" y="40"/>
    <use href="#dustMed10L" x="750" y="50"/>

    <use href="#dustSmall10L" x="400" y="200"/>
    <use href="#dustSmall10L" x="580" y="240"/>
    <use href="#dustSmall10L" x="200" y="140"/>
    <use href="#dustSmall10L" x="750" y="180"/>
    <use href="#dustSmall10L" x="480" y="120"/>
    <use href="#dustSmall10L" x="320" y="350"/>
    <use href="#dustSmall10L" x="880" y="280"/>
    <use href="#dustSmall10L" x="620" y="80"/>
    <use href="#dustSmall10L" x="100" y="25"/>
    <use href="#dustSmall10L" x="900" y="30"/>
    <use href="#dustSmall10L" x="40" y="220"/>
    <use href="#dustSmall10L" x="970" y="400"/>
  </g>

  <g fill="none" stroke="#FFFFFF" stroke-opacity="0.018">
    <use href="#baseGlowCircles" stroke-width="8.3333"/>
    <use href="#baseGlowCircles" stroke-width="16.6667"/>
    <use href="#baseGlowCircles" stroke-width="25.0000"/>
    <use href="#baseGlowCircles" stroke-width="33.3333"/>
    <use href="#baseGlowCircles" stroke-width="41.6667"/>
    <use href="#baseGlowCircles" stroke-width="50.0000"/>
    <use href="#baseGlowCircles" stroke-width="58.3333"/>
    <use href="#baseGlowCircles" stroke-width="66.6667"/>
    <use href="#baseGlowCircles" stroke-width="75.0000"/>
    <use href="#baseGlowCircles" stroke-width="83.3333"/>
    <use href="#baseGlowCircles" stroke-width="91.6667"/>
    <use href="#baseGlowCircles" stroke-width="100.0000"/>
    <use href="#baseGlowCircles" stroke-width="108.3333"/>
    <use href="#baseGlowCircles" stroke-width="116.6667"/>
    <use href="#baseGlowCircles" stroke-width="125.0000"/>
    <use href="#baseGlowCircles" stroke-width="133.3333"/>
    <use href="#baseGlowCircles" stroke-width="141.6667"/>
    <use href="#baseGlowCircles" stroke-width="150.0000"/>
    <use href="#baseGlowCircles" stroke-width="158.3333"/>
    <use href="#baseGlowCircles" stroke-width="166.6667"/>
    <use href="#baseGlowCircles" stroke-width="175.0000"/>
    <use href="#baseGlowCircles" stroke-width="183.3333"/>
    <use href="#baseGlowCircles" stroke-width="191.6667"/>
    <use href="#baseGlowCircles" stroke-width="200.0000"/>
    <use href="#baseGlowCircles" stroke-width="208.3333"/>
    <use href="#baseGlowCircles" stroke-width="216.6667"/>
    <use href="#baseGlowCircles" stroke-width="225.0000"/>
    <use href="#baseGlowCircles" stroke-width="233.3333"/>
    <use href="#baseGlowCircles" stroke-width="241.6667"/>
    <use href="#baseGlowCircles" stroke-width="250.0000"/>
  </g>

  <circle cx="350.4700" cy="853.9300" r="331.4700" fill="#248F24"/>
  <circle cx="512.0000" cy="715.0000" r="331.4700" fill="#cc3333"/>
  <circle cx="673.5300" cy="853.9300" r="331.4700" fill="#3333cc"/>

  <path fill="#e6e64d" stroke="#e6e64d" stroke-width="1" stroke-linejoin="round"
        d="M 226.5568 546.4926 
           A 331.47 331.47 0 0 0 388.0866 1022.4373 
           A 331.47 331.47 0 0 1 512.0000 564.4815 
           A 331.47 331.47 0 0 0 226.5568 546.4926 Z"/>

  <path fill="#ff44ff" stroke="#ff44ff" stroke-width="1" stroke-linejoin="round"
        d="M 797.4432 546.4926 
           A 331.47 331.47 0 0 0 512.0000 564.4815 
           A 331.47 331.47 0 0 1 635.9134 1022.4373 
           A 331.47 331.47 0 0 0 797.4432 546.4926 Z"/>

  <path fill="#f0f0f0" stroke="#f0f0f0" stroke-width="1" stroke-linejoin="round"
        paint-order="stroke fill"
        d="M 512.0000 564.4815 
           A 331.47 331.47 0 0 1 635.9134 1022.4373 
           A 331.47 331.47 0 0 1 388.0866 1022.4373 
           A 331.47 331.47 0 0 1 512.0000 564.4815 Z"/>

</svg>